<?xml version="1.0" encoding="utf-8"?>
<!-- Generator: Adobe Illustrator 21.1.0, SVG Export Plug-In . SVG Version: 6.00 Build 0)  -->
<svg version="1.1" id="Capa_1" xmlns="http://www.w3.org/2000/svg" xmlns:xlink="http://www.w3.org/1999/xlink" x="0px" y="0px"
	 viewBox="0 0 47 47" style="enable-background:new 0 0 47 47;" xml:space="preserve">
<style type="text/css">
	.st0{fill:#0BAA4B;}
</style>
<g>
	<g id="Layer_1_22_">
		<g>
			<path class="st0" d="M6.1,38.5V5.1h27v28l5.1-4.2V2.6c0-1.4-1.1-2.6-2.6-2.6H3.6C2.1,0,1,1.1,1,2.6v38.5c0,1.4,1.1,2.6,2.6,2.6
				H26l-3.6-5.1H6.1z"/>
			<path class="st0" d="M45.6,27.6c-0.5-0.4-1.2-0.5-1.7-0.1l-11.8,9.7l-7.8-4.7c-0.5-0.3-1.2-0.2-1.6,0.2c-0.4,0.4-0.5,1.1-0.1,1.6
				l8.5,12c0.2,0.3,0.6,0.5,1,0.5c0,0,0,0,0,0c0.4,0,0.8-0.2,1-0.5l12.6-17.2C46.1,28.8,46.1,28.1,45.6,27.6z"/>
			<path class="st0" d="M27.3,9H11.9c-1.4,0-2.6,1.1-2.6,2.6s1.1,2.6,2.6,2.6h15.4c1.4,0,2.6-1.1,2.6-2.6S28.7,9,27.3,9z"/>
			<path class="st0" d="M27.3,16.7H11.9c-1.4,0-2.6,1.1-2.6,2.6s1.1,2.6,2.6,2.6h15.4c1.4,0,2.6-1.1,2.6-2.6
				C29.9,17.8,28.7,16.7,27.3,16.7z"/>
			<path class="st0" d="M27.3,24.4H11.9c-1.4,0-2.6,1.1-2.6,2.6s1.1,2.6,2.6,2.6h15.4c1.4,0,2.6-1.1,2.6-2.6
				C29.9,25.5,28.7,24.4,27.3,24.4z"/>
		</g>
	</g>
</g>
</svg>
